<?xml version="1.0" standalone="no"?>
<!DOCTYPE svg PUBLIC "-//W3C//DTD SVG 20010904//EN"
 "http://www.w3.org/TR/2001/REC-SVG-20010904/DTD/svg10.dtd">
<svg version="1.0" xmlns="http://www.w3.org/2000/svg"
 width="48.000000pt" height="48.000000pt" viewBox="0 0 48.000000 48.000000"
 preserveAspectRatio="xMidYMid meet">

<g transform="translate(0.000000,48.000000) scale(0.100000,-0.100000)"
fill="#000000" stroke="none">
<path d="M347 386 c-4 -10 -1 -13 9 -9 15 6 19 23 5 23 -5 0 -11 -7 -14 -14z"/>
<path d="M100 381 c0 -5 9 -11 19 -14 14 -3 18 -1 14 9 -6 15 -33 19 -33 5z"/>
<path d="M215 320 c-4 -7 3 -8 22 -4 38 9 42 14 10 14 -14 0 -29 -5 -32 -10z"/>
<path d="M275 298 c-15 -70 -47 -77 -75 -15 -21 44 -17 14 5 -39 10 -25 18
-31 41 -30 27 2 29 6 37 56 8 59 3 79 -8 28z"/>
<path d="M230 182 c-64 -2 -78 -6 -92 -25 -19 -24 -24 -42 -9 -32 6 3 15 -3
20 -14 19 -35 42 -51 72 -51 40 0 60 12 91 53 24 31 25 34 10 53 -15 16 -28
19 -92 16z m-45 -31 c-3 -6 -11 -8 -17 -5 -6 4 -5 9 3 15 16 10 23 4 14 -10z
m63 8 c-2 -6 -8 -10 -13 -10 -5 0 -11 4 -13 10 -2 6 4 11 13 11 9 0 15 -5 13
-11z m52 1 c0 -5 -4 -10 -10 -10 -5 0 -10 5 -10 10 0 6 5 10 10 10 6 0 10 -4
10 -10z"/>
<path d="M250 39 c-14 -6 -33 -8 -42 -5 -10 2 -16 0 -12 -5 8 -14 58 -11 80 6
22 16 10 18 -26 4z"/>
</g>
</svg>
